# xmcd
#
# Track frame offsets:
#	150
#	16960
#	33375
#	50125
#	64122
#	89762
#	118062
#	141295
#	164057
#	186112
#	203005
#	223200
#	241117
#	257440
#	279062
#	294840
#
# Disc length: 4198 seconds
#
# Revision: 1
# Processed by: cddbd v1.5PL3 Copyright (c) Steve Scherf et al.
# Submitted via: CDex 1.50Beta5
#
DISCID=ee106410
DTITLE=Various Artist - Super Soul Mode 70's
DYEAR=1995
DGENRE=R&B
TTITLE0=MFSB/Tsop (The Sound Of Philadelphia)
TTITLE1=アース・ウインド＆ファイアー/September
TTITLE2=エモーションズ/Best Of My Love
TTITLE3=スライ＆ザ・ファミリー・ストーン/Family Affairs
TTITLE4=アイズレー・ブラザーズ/For The Love Of You (Part 1 and 2)
TTITLE5=ヒートウェイヴ/Always And Forever
TTITLE6=シェリル・リン/Got To Be Real
TTITLE7=ワイルド・チェリー/Play That Funky Music
TTITLE8=マザーズ・ファイネスト/Love Change
TTITLE9=オージェイズ/Sunshine
TTITLE10=ジョニー・テイラー/Disco Lady
TTITLE11=バティ・ラベル/Lady Marmalade
TTITLE12=ジャクソンズ/Blame It On The Boogie
TTITLE13=ビリー・ポール/Me And Mrs. Jones
TTITLE14=ハロルド・メルヴィン＆ザ・ブル−・ノ−ツ/If You Don't Know Me By Now
TTITLE15=マンハッタンズ/Kiss And Say Goodbye
EXTD=1995/10/21発売
EXTT0=
EXTT1=
EXTT2=
EXTT3=
EXTT4=
EXTT5=
EXTT6=
EXTT7=
EXTT8=
EXTT9=
EXTT10=
EXTT11=
EXTT12=
EXTT13=
EXTT14=
EXTT15=
PLAYORDER=
